<svg version="1.2" xmlns="http://www.w3.org/2000/svg" viewBox="0 0 463 254" width="463" height="254">
	<title>REYNOSO_LOGO_BLANCO_SF</title>
	<style>
		.s0 { fill: #f2f2f2 } 
	</style>
	<g>
		<path class="s0" d="m144.98 89.83l-27.68-12.55v96.03h-17.13l-6.48 5.6v-46.32h-18.89v-32.36h-33.8v45.12h-33.12l24.32 95.01q5.42-1.06 11.11-2.05 4.88-0.85 9.95-1.66 6.11-0.97 12.48-1.88 5.76-0.81 11.74-1.57 11.08-1.41 22.84-2.61 11-1.13 22.53-2.06 10.84-0.89 22.12-1.58 14.59-0.9 29.8-1.49l-2.69-123.31-27.11-12.3z"/>
		<path class="s0" d="m438.48 145.35h-21.48v-45.12h-33.8v32.36h-18.89v46.32l-6.48-5.6h-17.13v-96.03l-27.68 12.55-27.11 12.3-2.69 123.31q15.22 0.58 29.8 1.49 11.27 0.7 22.12 1.58 11.54 0.93 22.53 2.06 11.76 1.2 22.84 2.61 5.98 0.76 11.74 1.57 6.38 0.91 12.48 1.88 5.07 0.81 9.95 1.66 5.7 0.99 11.11 2.05l24.32-95.01h-11.64z"/>
		<path class="s0" d="m229.57 12.01l-0.2 0.07-0.22-0.07h-0.01v0.15l-42.71 14.44v198.68c14.05-0.5 28.46-0.78 43.14-0.84q2.85-0.01 5.71-0.02 18.84 0.01 37.01 0.48v-198.3l-42.73-14.45c0 0 0-0.14 0.01-0.14z"/>
	</g>
	<g>
		<path class="s0" d="m-145.33 402.29v-109.9h57.17q13.48 0 22.1 4.95 8.61 4.95 12.88 13.74 4.26 8.79 4.27 20.39c0 7.73-1.85 13.91-5.55 19.54q-5.55 8.45-14.76 12.89 1.87 1.53 3.24 3.67 1.36 2.13 3.07 5.89l12.63 28.84h-33.45l-11.61-26.45q-1.37-3.08-3.33-4.35-1.97-1.28-5.55-1.28h-9.05v32.08h-32.08zm32.08-56.66h16.89q6.99 0 10.84-3.67 3.84-3.67 3.84-10.5 0-14.51-13.65-14.51h-17.92c0 0 0 28.67 0 28.68z"/>
		<path class="s0" d="m-38.67 402.29v-109.9h83.28v24.57h-51.2v17.92h44.88v24.91h-44.88v17.92h51.2v24.57c0 0-83.28 0-83.28 0.01z"/>
		<path class="s0" d="m89.32 402.29v-40.28l-39.59-69.63h33.45l22.18 41.47 22.19-41.47h33.45l-39.59 69.63v40.28c0 0-32.08 0-32.09 0z"/>
		<path class="s0" d="m167.82 402.29v-109.9h27.31l41.47 58.19v-58.19h32.08v109.9h-27.48l-41.3-58.02v58.02z"/>
		<path class="s0" d="m335.06 403.99q-27.3 0-41.73-13.31-14.42-13.31-14.42-43.01 0-20.48 6.48-33.02 6.48-12.54 19.03-18.26 12.54-5.72 30.63-5.72 18.09 0 30.63 5.72 12.54 5.72 19.03 18.26 6.48 12.54 6.48 33.02 0 29.7-14.51 43.01-14.51 13.31-41.64 13.31zm0-27.3q12.29 0 17.83-6.91 5.55-6.91 5.55-22.1 0-16.21-5.55-22.95-5.55-6.74-17.83-6.74-12.29 0-17.83 6.74-5.55 6.74-5.55 22.95 0 15.19 5.55 22.1 5.55 6.91 17.83 6.91z"/>
		<path class="s0" d="m437.46 403.99q-11.09 0-20.99-1.79-9.9-1.79-16.89-5.03v-26.45q7.68 3.59 17.07 5.8 9.39 2.22 17.58 2.22c5.46 0 9.98-0.48 12.89-1.45q4.35-1.46 4.35-6.57 0-3.59-2.47-5.63-2.47-2.05-7.68-3.76-5.2-1.71-13.57-4.27-11.09-3.59-17.58-7.85-6.49-4.26-9.3-10.41-2.82-6.15-2.82-15.02 0-16.21 11.52-24.66 11.52-8.45 34.22-8.45 9.05 0 18.69 1.54 9.64 1.53 15.62 3.41v26.62q-8.02-3.24-15.36-4.61-7.34-1.37-13.82-1.37-7.51 0-12.8 1.19-5.29 1.2-5.29 6.14 0 4.27 4.52 6.23 4.52 1.97 16.13 5.03 13.48 3.58 20.56 8.7 7.09 5.12 9.64 11.86 2.56 6.75 2.56 15.27 0 15.01-11.6 24.15-11.6 9.13-35.16 9.13z"/>
		<path class="s0" d="m547.19 403.99q-27.3 0-41.73-13.31-14.42-13.31-14.42-43.01 0-20.48 6.48-33.02 6.49-12.54 19.03-18.26 12.54-5.72 30.63-5.72 18.09 0 30.63 5.72 12.54 5.72 19.03 18.26 6.48 12.54 6.48 33.02 0 29.7-14.51 43.01-14.5 13.31-41.64 13.31zm0-27.3q12.29 0 17.83-6.91 5.55-6.91 5.55-22.1 0-16.21-5.55-22.95-5.55-6.74-17.83-6.74-12.29 0-17.83 6.74-5.55 6.74-5.55 22.95 0 15.19 5.55 22.1 5.55 6.91 17.83 6.91z"/>
	</g>
</svg>