<svg width="66" height="67" fill="none" xmlns="http://www.w3.org/2000/svg"><g clip-path="url(#a)"><path d="m17.444 57.383 1.08.541c4.496 2.707 9.53 3.97 14.566 3.97 15.826 0 28.775-12.992 28.775-28.872 0-7.579-3.058-14.977-8.453-20.39C48.017 7.217 40.823 4.15 33.09 4.15c-15.825 0-28.774 12.993-28.594 29.053 0 5.413 1.619 10.646 4.316 15.157l.72 1.083L6.653 60.09l10.79-2.707Z" fill="#00E676"/><path d="M56.47 9.744C50.354 3.43 41.902 0 33.27 0 14.927 0 .18 14.977.36 33.203c0 5.774 1.618 11.368 4.316 16.42L0 66.767l17.444-4.511c4.856 2.707 10.251 3.97 15.646 3.97 18.164 0 32.911-14.977 32.911-33.202 0-8.843-3.417-17.144-9.531-23.279Zm-23.2 50.887c-4.856 0-9.711-1.263-13.847-3.79l-1.08-.54-10.43 2.706 2.697-10.285-.719-1.083C1.978 34.827 5.755 17.864 18.703 9.925c12.949-7.94 29.674-4.15 37.587 8.842 7.913 12.992 4.136 29.774-8.812 37.714-4.137 2.706-9.172 4.15-14.208 4.15Zm15.826-20.03-1.978-.902s-2.877-1.263-4.676-2.165c-.18 0-.36-.18-.54-.18-.54 0-.899.18-1.258.36 0 0-.18.18-2.698 3.068a.989.989 0 0 1-.9.541h-.18c-.179 0-.538-.18-.718-.36l-.9-.361c-1.978-.903-3.776-1.986-5.215-3.43-.36-.36-.9-.72-1.259-1.082-1.259-1.263-2.518-2.707-3.417-4.33l-.18-.362c-.18-.18-.18-.36-.36-.721 0-.361 0-.722.18-.903 0 0 .72-.902 1.26-1.443.36-.361.539-.902.899-1.263.36-.542.54-1.263.36-1.805-.18-.902-2.338-5.774-2.878-6.857-.36-.541-.72-.722-1.259-.902h-1.978c-.36 0-.72.18-1.08.18l-.18.18c-.359.181-.718.542-1.078.722-.36.362-.54.722-.9 1.083-1.258 1.624-1.977 3.61-1.977 5.594 0 1.444.36 2.887.899 4.15l.18.542c1.618 3.428 3.776 6.496 6.654 9.203l.72.721c.538.542 1.078.903 1.438 1.444 3.776 3.248 8.092 5.594 12.948 6.857.54.18 1.259.18 1.799.361h1.798c.9 0 1.978-.36 2.698-.722.539-.36.899-.36 1.258-.721l.36-.361c.36-.361.72-.542 1.08-.903.359-.36.718-.721.898-1.082.36-.722.54-1.624.72-2.527v-1.263s-.18-.18-.54-.36Z" fill="#fff"/></g><defs><clipPath id="a"><path fill="#fff" d="M0 0h66v67H0z"/></clipPath></defs></svg>