<svg width="304" height="358" fill="none" xmlns="http://www.w3.org/2000/svg"><circle cx="8.83495" cy="8.83495" r="8.83495" fill="#fff" fill-opacity=".1"/><circle cx="8.83495" cy="203.204" r="8.83495" fill="#fff" fill-opacity=".1"/><circle cx="8.83495" cy="106.02" r="8.83495" fill="#fff" fill-opacity=".1"/><circle cx="8.83495" cy="300.389" r="8.83495" fill="#fff" fill-opacity=".1"/><circle cx="8.83495" cy="57.4268" r="8.83495" fill="#fff" fill-opacity=".1"/><circle cx="8.83495" cy="251.796" r="8.83495" fill="#fff" fill-opacity=".1"/><circle cx="8.83495" cy="154.611" r="8.83495" fill="#fff" fill-opacity=".1"/><circle cx="8.83495" cy="348.98" r="8.83495" fill="#fff" fill-opacity=".1"/><circle cx="251.796" cy="8.83495" r="8.83495" fill="#fff" fill-opacity=".1"/><circle cx="251.796" cy="203.204" r="8.83495" fill="#fff" fill-opacity=".1"/><circle cx="251.796" cy="106.02" r="8.83495" fill="#fff" fill-opacity=".1"/><circle cx="251.796" cy="300.389" r="8.83495" fill="#fff" fill-opacity=".1"/><circle cx="251.796" cy="57.4268" r="8.83495" fill="#fff" fill-opacity=".1"/><circle cx="251.796" cy="251.796" r="8.83495" fill="#fff" fill-opacity=".1"/><circle cx="251.796" cy="154.611" r="8.83495" fill="#fff" fill-opacity=".1"/><circle cx="251.796" cy="348.98" r="8.83495" fill="#fff" fill-opacity=".1"/><circle cx="57.4268" cy="8.83495" r="8.83495" fill="#fff" fill-opacity=".1"/><circle cx="57.4268" cy="203.204" r="8.83495" fill="#fff" fill-opacity=".1"/><circle cx="57.4268" cy="106.02" r="8.83495" fill="#fff" fill-opacity=".1"/><circle cx="57.4268" cy="300.389" r="8.83495" fill="#fff" fill-opacity=".1"/><circle cx="57.4268" cy="57.4268" r="8.83495" fill="#fff" fill-opacity=".1"/><circle cx="57.4268" cy="251.796" r="8.83495" fill="#fff" fill-opacity=".1"/><circle cx="57.4268" cy="154.611" r="8.83495" fill="#fff" fill-opacity=".1"/><circle cx="57.4268" cy="348.98" r="8.83495" fill="#fff" fill-opacity=".1"/><circle cx="300.389" cy="8.83495" r="8.83495" fill="#fff" fill-opacity=".1"/><circle cx="300.389" cy="203.204" r="8.83495" fill="#fff" fill-opacity=".1"/><circle cx="300.389" cy="106.02" r="8.83495" fill="#fff" fill-opacity=".1"/><circle cx="300.389" cy="300.389" r="8.83495" fill="#fff" fill-opacity=".1"/><circle cx="300.389" cy="57.4268" r="8.83495" fill="#fff" fill-opacity=".1"/><circle cx="300.389" cy="251.796" r="8.83495" fill="#fff" fill-opacity=".1"/><circle cx="300.389" cy="154.611" r="8.83495" fill="#fff" fill-opacity=".1"/><circle cx="300.389" cy="348.98" r="8.83495" fill="#fff" fill-opacity=".1"/><circle cx="106.02" cy="8.83495" r="8.83495" fill="#fff" fill-opacity=".1"/><circle cx="106.02" cy="203.204" r="8.83495" fill="#fff" fill-opacity=".1"/><circle cx="106.02" cy="106.02" r="8.83495" fill="#fff" fill-opacity=".1"/><circle cx="106.02" cy="300.389" r="8.83495" fill="#fff" fill-opacity=".1"/><circle cx="106.02" cy="57.4268" r="8.83495" fill="#fff" fill-opacity=".1"/><circle cx="106.02" cy="251.796" r="8.83495" fill="#fff" fill-opacity=".1"/><circle cx="106.02" cy="154.611" r="8.83495" fill="#fff" fill-opacity=".1"/><circle cx="106.02" cy="348.98" r="8.83495" fill="#fff" fill-opacity=".1"/><circle cx="154.611" cy="8.83495" r="8.83495" fill="#fff" fill-opacity=".1"/><circle cx="154.611" cy="203.204" r="8.83495" fill="#fff" fill-opacity=".1"/><circle cx="154.611" cy="106.02" r="8.83495" fill="#fff" fill-opacity=".1"/><circle cx="154.611" cy="300.389" r="8.83495" fill="#fff" fill-opacity=".1"/><circle cx="154.611" cy="57.4268" r="8.83495" fill="#fff" fill-opacity=".1"/><circle cx="154.611" cy="251.796" r="8.83495" fill="#fff" fill-opacity=".1"/><circle cx="154.611" cy="154.611" r="8.83495" fill="#fff" fill-opacity=".1"/><circle cx="154.611" cy="348.98" r="8.83495" fill="#fff" fill-opacity=".1"/><circle cx="203.204" cy="8.83495" r="8.83495" fill="#fff" fill-opacity=".1"/><circle cx="203.204" cy="203.204" r="8.83495" fill="#fff" fill-opacity=".1"/><circle cx="203.204" cy="106.02" r="8.83495" fill="#fff" fill-opacity=".1"/><circle cx="203.204" cy="300.389" r="8.83495" fill="#fff" fill-opacity=".1"/><circle cx="203.204" cy="57.4268" r="8.83495" fill="#fff" fill-opacity=".1"/><circle cx="203.204" cy="251.796" r="8.83495" fill="#fff" fill-opacity=".1"/><circle cx="203.204" cy="154.611" r="8.83495" fill="#fff" fill-opacity=".1"/><circle cx="203.204" cy="348.98" r="8.83495" fill="#fff" fill-opacity=".1"/></svg>